<svg width="1920" height="1152" viewBox="0 0 1920 1152" fill="none" xmlns="http://www.w3.org/2000/svg">
<g clip-path="url(#clip0_3_54)">
<path d="M1920 0H0V1152H1920V0Z" fill="#06053F"/>
<path d="M2093 224.93C2037.31 233.707 1904.81 284.812 1820.37 419.017C1735.93 553.223 1588.76 419.018 1547.74 300.158C1506.72 181.298 1402.57 164.748 1304.12 224.93C1205.68 285.112 1091.02 100.053 1046 -1.317e-05L2093 -1.317e-05V224.93Z" fill="url(#paint0_linear_3_54)"/>
<path d="M982.728 0C988.806 37.82 976.163 125.434 876.965 173.331C777.767 221.229 515.002 262.03 357.726 226.55C200.45 191.071 61.4088 370.981 50.4679 508.168C39.5269 645.355 -40.4028 697.884 -79 707V0H982.728Z" fill="url(#paint1_linear_3_54)"/>
<path d="M720 -96C692.5 -34 609.1 102.9 495.5 154.5C381.9 206.1 250.167 176 198.5 154.5C155.333 133 77.3 137.5 110.5 327.5C143.7 517.5 -96 220.667 -220 48.5L294 -251L720 -96Z" fill="url(#paint2_linear_3_54)"/>
<path d="M1402.66 30.1454C1409.31 92.0153 1450.69 215.755 1563.02 215.755C1703.43 215.755 1670.47 133.37 1760.48 133.37C1850.49 133.37 1822.24 318.98 2019.7 215.755C2177.67 133.175 2075.18 -37.0431 2004.19 -111.83L1383 -161L1402.66 30.1454Z" fill="url(#paint3_linear_3_54)"/>
<path d="M2210.49 845.224C2128.14 842.059 1938.2 797.639 1837.29 645.285C1711.16 454.843 1611.95 711.765 1531.17 764.249C1450.39 816.733 1589.27 1049.66 1369.13 1002.18C1148.99 954.691 1279.37 740.256 1072.46 792.74C865.541 845.224 1018.6 921.201 856.566 1111.64C726.936 1264 1015.45 1489.36 1175.91 1583H2296L2210.49 845.224Z" fill="url(#paint4_linear_3_54)"/>
<path d="M2116 953.637C2051.5 857.759 1838.5 686.531 1502.49 768.641C1082.47 871.279 1180.79 918.459 1060.44 1009.09C940.099 1099.73 1292.48 1221.82 888.186 1273.14C564.754 1314.19 1542.08 1426.82 2071.17 1478L2116 953.637Z" fill="url(#paint5_linear_3_54)"/>
<path d="M-51 913C4.66667 907.167 137.1 873.2 221.5 784C305.9 694.8 453 784 494 863C535 942 639.1 953 737.5 913C835.9 873 950.5 996 995.5 1062.5H-51V913Z" fill="url(#paint6_linear_3_54)"/>
</g>
<defs>
<linearGradient id="paint0_linear_3_54" x1="2034.47" y1="-30.843" x2="1651.24" y2="240.541" gradientUnits="userSpaceOnUse">
<stop stop-color="#030328"/>
<stop offset="1" stop-color="#0A074B"/>
</linearGradient>
<linearGradient id="paint1_linear_3_54" x1="-65.7798" y1="449.775" x2="785.965" y2="7.11964" gradientUnits="userSpaceOnUse">
<stop stop-color="#080647"/>
<stop offset="0.557751" stop-color="#090649"/>
<stop offset="1" stop-color="#1A136D"/>
</linearGradient>
<linearGradient id="paint2_linear_3_54" x1="-178.5" y1="69" x2="697" y2="-82" gradientUnits="userSpaceOnUse">
<stop stop-color="#040438"/>
<stop offset="0.9375" stop-color="#0D0070"/>
</linearGradient>
<linearGradient id="paint3_linear_3_54" x1="1417.5" y1="247" x2="1863.67" y2="77.8062" gradientUnits="userSpaceOnUse">
<stop stop-color="#0013C2" stop-opacity="0.83"/>
<stop offset="1" stop-color="#0A074C"/>
</linearGradient>
<linearGradient id="paint4_linear_3_54" x1="1098.91" y1="1125.14" x2="1421.62" y2="494.626" gradientUnits="userSpaceOnUse">
<stop stop-color="#06053F"/>
<stop offset="0.411458" stop-color="#1A0E7A"/>
<stop offset="1" stop-color="#1C38C8" stop-opacity="0.19"/>
</linearGradient>
<linearGradient id="paint5_linear_3_54" x1="1629.43" y1="886.885" x2="1443.69" y2="596.193" gradientUnits="userSpaceOnUse">
<stop stop-color="#0A074C"/>
<stop offset="1" stop-color="#1C38C8"/>
</linearGradient>
<linearGradient id="paint6_linear_3_54" x1="7.50001" y1="1083" x2="277" y2="796" gradientUnits="userSpaceOnUse">
<stop stop-color="#030328"/>
<stop offset="1" stop-color="#0A074B"/>
</linearGradient>
<clipPath id="clip0_3_54">
<rect width="1920" height="1152" fill="white"/>
</clipPath>
</defs>
</svg>
